# xmcd
#
# Track frame offsets:
#	150
#	19529
#	50023
#	68601
#	83965
#	101570
#	116596
#	132960
#	150490
#	171445
#
# Disc length: 2580 seconds
#
# Revision: 1
# Processed by: cddbd v1.4PL0 Copyright (c) Steve Scherf et al.
# Submitted via: audiograbber 1.81.01
#
DISCID=7c0a120a
DTITLE=Danny Bryant's Red Eye Band - Watching You!
DYEAR=2002
DGENRE=Blues
TTITLE0=Watching You!
TTITLE1=Since You've Gone
TTITLE2=Living In The Lion's Den
TTITLE3=Crying for My Baby
TTITLE4=Search for You
TTITLE5=Heartbreaker
TTITLE6=Purple (Instrumental)
TTITLE7=Follow On
TTITLE8=Dancing Girl
TTITLE9=Falling Tears
EXTD=Published by Blues Matters! (http://www.bluesmatters.com)
EXTT0=
EXTT1=
EXTT2=
EXTT3=
EXTT4=
EXTT5=
EXTT6=
EXTT7=
EXTT8=
EXTT9=
PLAYORDER=
